# xmcd CD database file
#
# Track frame offsets:
#	150
#	14092
#	27731
#	42895
#	62570
#	79169
#	94556
#	110692
#	127542
#	147339
#	164865
#	186546
#	204695
#	222666
#	238906
#
# Disc length: 3383 seconds
#
# Revision: 0
# Processed by: cddbd v1.5.2PL0 Copyright (c) Steve Scherf et al.
# Submitted via: CDex 1.51
#
DISCID=e80d350f
DTITLE=Brooks and Dunn I - same
DYEAR=1900
DGENRE=Country
TTITLE0=honky tonk stomp
TTITLE1=brand new man
TTITLE2=aint nothing bout you
TTITLE3=hill billy deluxe
TTITLE4=how long gone
TTITLE5=shes not the
TTITLE6=a man this lonely
TTITLE7=rock my world
TTITLE8=red dirt road
TTITLE9=the long goodbye
TTITLE10=youre gonna miss me
TTITLE11=if you see him
TTITLE12=she used to be mine
TTITLE13=that aint no way to go
TTITLE14=boot scootin boogie
EXTD=
EXTT0=
EXTT1=
EXTT2=
EXTT3=
EXTT4=
EXTT5=
EXTT6=
EXTT7=
EXTT8=
EXTT9=
EXTT10=
EXTT11=
EXTT12=
EXTT13=
EXTT14=
PLAYORDER=
